<svg id="visual" viewBox="0 0 1920 1080" width="1920" height="1080" xmlns="http://www.w3.org/2000/svg" xmlns:xlink="http://www.w3.org/1999/xlink" version="1.1"><path d="M0 835L45.7 850.2C91.3 865.3 182.7 895.7 274.2 914.8C365.7 934 457.3 942 548.8 934.8C640.3 927.7 731.7 905.3 823 886.5C914.3 867.7 1005.7 852.3 1097 868.2C1188.3 884 1279.7 931 1371.2 958.2C1462.7 985.3 1554.3 992.7 1645.8 969.7C1737.3 946.7 1828.7 893.3 1874.3 866.7L1920 840L1920 1081L1874.3 1081C1828.7 1081 1737.3 1081 1645.8 1081C1554.3 1081 1462.7 1081 1371.2 1081C1279.7 1081 1188.3 1081 1097 1081C1005.7 1081 914.3 1081 823 1081C731.7 1081 640.3 1081 548.8 1081C457.3 1081 365.7 1081 274.2 1081C182.7 1081 91.3 1081 45.7 1081L0 1081Z" fill="#ffffff" stroke-linecap="round" stroke-linejoin="miter"></path></svg>